<?xml version="1.0" standalone="no"?>
<!DOCTYPE svg PUBLIC "-//W3C//DTD SVG 20010904//EN"
 "http://www.w3.org/TR/2001/REC-SVG-20010904/DTD/svg10.dtd">
<svg version="1.0" xmlns="http://www.w3.org/2000/svg"
 width="300.000000pt" height="150.000000pt" viewBox="0 0 300.000000 150.000000"
 preserveAspectRatio="xMidYMid meet">

<g transform="translate(0.000000,150.000000) scale(0.100000,-0.100000)"
fill="#000000" stroke="none">
<path d="M1690 1438 c-25 -4 -83 -27 -130 -50 -83 -42 -87 -43 -180 -41 -53 0
-137 10 -190 21 -202 43 -320 38 -475 -19 -158 -59 -227 -109 -342 -248 -78
-93 -111 -156 -95 -181 8 -13 4 -38 -14 -101 -38 -129 -43 -148 -49 -229 -8
-97 -31 -187 -58 -224 -37 -51 -47 -76 -53 -130 l-6 -51 63 -43 62 -43 103 3
c62 1 100 6 97 12 -4 5 1 7 10 3 12 -4 14 -2 10 10 -5 12 -3 14 8 9 8 -4 -1 6
-18 23 -18 17 -45 33 -60 36 -51 10 -76 20 -80 30 -6 21 16 36 68 45 80 14
123 28 160 53 31 21 72 71 82 100 3 8 19 0 45 -21 22 -17 45 -32 50 -32 14 0
189 -176 218 -219 14 -22 34 -42 43 -45 9 -3 66 -8 127 -12 90 -5 122 -3 170
11 32 9 62 22 66 28 14 22 -72 64 -141 69 -34 2 -66 10 -70 16 -4 7 -3 47 1
90 5 42 8 110 6 150 l-3 72 45 -1 c25 -1 82 1 128 5 45 4 82 4 82 1 0 -3 -18
-48 -40 -101 -22 -53 -40 -101 -40 -106 0 -6 16 -44 35 -85 44 -92 62 -101
197 -102 53 -1 104 -4 114 -8 11 -3 16 -3 12 2 -4 4 -3 13 2 20 22 27 -68 94
-127 95 -34 0 -28 14 25 62 26 24 77 73 113 110 l67 67 19 -22 c10 -12 32 -39
47 -60 34 -46 97 -106 158 -149 23 -17 53 -41 65 -54 44 -45 208 -148 223
-139 5 3 39 1 76 -4 74 -11 157 -4 148 11 -4 6 6 7 26 3 24 -5 31 -4 25 5 -5
9 -2 10 14 5 33 -10 17 15 -35 54 -29 22 -65 38 -101 45 -52 11 -60 16 -91 61
-20 28 -55 73 -80 100 -51 57 -76 108 -104 215 -32 120 -32 120 -14 120 53 0
206 -55 221 -80 3 -5 10 -8 15 -5 4 3 13 -2 20 -10 7 -8 19 -15 27 -15 8 0 11
-5 8 -10 -3 -6 2 -13 12 -17 10 -4 26 -17 36 -30 18 -22 18 -22 37 -3 26 26
79 26 130 0 47 -24 93 -26 114 -4 18 18 19 24 7 43 -5 8 -14 10 -21 6 -9 -5
-11 -4 -6 3 4 6 -1 23 -10 37 -14 21 -14 25 -2 25 8 0 26 -10 39 -23 24 -22
25 -22 76 -5 29 9 62 26 74 37 l21 20 -34 33 c-18 19 -51 55 -72 81 -33 40
-38 52 -33 82 6 35 -23 103 -64 150 -9 11 -20 39 -24 62 -3 22 -15 49 -25 58
-18 16 -21 16 -44 1 -38 -24 -63 -20 -81 14 -20 38 -49 54 -74 40 -11 -5 -21
-15 -23 -20 -2 -6 -24 5 -48 24 -45 35 -173 106 -191 106 -5 0 -61 31 -125 70
-73 43 -136 73 -168 80 -71 14 -153 17 -206 8z"/>
</g>
</svg>
