<svg xmlns="http://www.w3.org/2000/svg" xmlns:xlink="http://www.w3.org/1999/xlink" width="1920" zoomAndPan="magnify" viewBox="0 0 1440 809.999993" height="1080" preserveAspectRatio="xMidYMid meet" version="1.0"><path fill="#66bb6a" d="M 1125 405 C 1125 411.628906 1124.835938 418.253906 1124.511719 424.871094 C 1124.1875 431.492188 1123.699219 438.101562 1123.050781 444.695312 C 1122.398438 451.292969 1121.589844 457.871094 1120.617188 464.425781 C 1119.644531 470.980469 1118.511719 477.511719 1117.21875 484.011719 C 1115.925781 490.511719 1114.472656 496.976562 1112.863281 503.40625 C 1111.253906 509.835938 1109.484375 516.222656 1107.5625 522.566406 C 1105.636719 528.90625 1103.558594 535.199219 1101.324219 541.441406 C 1099.09375 547.679688 1096.707031 553.863281 1094.171875 559.988281 C 1091.632812 566.109375 1088.949219 572.167969 1086.117188 578.160156 C 1083.28125 584.152344 1080.300781 590.070312 1077.179688 595.914062 C 1074.054688 601.761719 1070.789062 607.527344 1067.378906 613.210938 C 1063.972656 618.898438 1060.425781 624.496094 1056.746094 630.007812 C 1053.0625 635.515625 1049.246094 640.933594 1045.300781 646.257812 C 1041.351562 651.582031 1037.273438 656.804688 1033.070312 661.929688 C 1028.863281 667.054688 1024.535156 672.070312 1020.085938 676.980469 C 1015.632812 681.890625 1011.066406 686.691406 1006.378906 691.378906 C 1001.691406 696.066406 996.890625 700.632812 991.980469 705.085938 C 987.070312 709.535156 982.054688 713.863281 976.929688 718.070312 C 971.804688 722.273438 966.582031 726.351562 961.257812 730.300781 C 955.933594 734.246094 950.515625 738.0625 945.003906 741.746094 C 939.496094 745.425781 933.898438 748.972656 928.210938 752.378906 C 922.527344 755.789062 916.761719 759.054688 910.914062 762.179688 C 905.070312 765.300781 899.152344 768.28125 893.160156 771.117188 C 887.167969 773.949219 881.109375 776.632812 874.988281 779.171875 C 868.863281 781.707031 862.679688 784.09375 856.441406 786.324219 C 850.199219 788.558594 843.90625 790.636719 837.566406 792.5625 C 831.222656 794.484375 824.835938 796.253906 818.40625 797.863281 C 811.976562 799.472656 805.511719 800.925781 799.011719 802.21875 C 792.511719 803.511719 785.980469 804.644531 779.425781 805.617188 C 772.871094 806.589844 766.292969 807.398438 759.695312 808.050781 C 753.101562 808.699219 746.492188 809.1875 739.871094 809.511719 C 733.253906 809.835938 726.628906 810 720 810 C 713.371094 810 706.746094 809.835938 700.128906 809.511719 C 693.507812 809.1875 686.898438 808.699219 680.304688 808.050781 C 673.707031 807.398438 667.128906 806.589844 660.574219 805.617188 C 654.019531 804.644531 647.488281 803.511719 640.988281 802.21875 C 634.488281 800.925781 628.023438 799.472656 621.59375 797.863281 C 615.164062 796.253906 608.777344 794.484375 602.433594 792.5625 C 596.09375 790.636719 589.800781 788.558594 583.558594 786.324219 C 577.320312 784.09375 571.136719 781.707031 565.011719 779.171875 C 558.890625 776.632812 552.832031 773.949219 546.839844 771.117188 C 540.847656 768.28125 534.929688 765.300781 529.085938 762.179688 C 523.238281 759.054688 517.472656 755.789062 511.789062 752.378906 C 506.101562 748.972656 500.503906 745.425781 494.992188 741.746094 C 489.484375 738.0625 484.066406 734.246094 478.742188 730.300781 C 473.417969 726.351562 468.195312 722.273438 463.070312 718.070312 C 457.945312 713.863281 452.929688 709.535156 448.019531 705.085938 C 443.109375 700.632812 438.308594 696.066406 433.621094 691.378906 C 428.933594 686.691406 424.367188 681.890625 419.914062 676.980469 C 415.464844 672.070312 411.136719 667.054688 406.929688 661.929688 C 402.726562 656.804688 398.648438 651.582031 394.699219 646.257812 C 390.753906 640.933594 386.9375 635.515625 383.253906 630.007812 C 379.574219 624.496094 376.027344 618.898438 372.621094 613.210938 C 369.210938 607.527344 365.945312 601.761719 362.820312 595.914062 C 359.699219 590.070312 356.71875 584.152344 353.882812 578.160156 C 351.050781 572.167969 348.367188 566.109375 345.828125 559.988281 C 343.292969 553.863281 340.90625 547.679688 338.675781 541.441406 C 336.441406 535.199219 334.363281 528.90625 332.4375 522.566406 C 330.515625 516.222656 328.746094 509.835938 327.136719 503.40625 C 325.527344 496.976562 324.074219 490.511719 322.78125 484.011719 C 321.488281 477.511719 320.355469 470.980469 319.382812 464.425781 C 318.410156 457.871094 317.601562 451.292969 316.949219 444.695312 C 316.300781 438.101562 315.8125 431.492188 315.488281 424.871094 C 315.164062 418.253906 315 411.628906 315 405 C 315 398.371094 315.164062 391.746094 315.488281 385.128906 C 315.8125 378.507812 316.300781 371.898438 316.949219 365.304688 C 317.601562 358.707031 318.410156 352.128906 319.382812 345.574219 C 320.355469 339.019531 321.488281 332.488281 322.78125 325.988281 C 324.074219 319.488281 325.527344 313.023438 327.136719 306.59375 C 328.746094 300.164062 330.515625 293.777344 332.4375 287.433594 C 334.363281 281.09375 336.441406 274.800781 338.675781 268.558594 C 340.90625 262.320312 343.292969 256.136719 345.828125 250.011719 C 348.367188 243.890625 351.050781 237.832031 353.882812 231.839844 C 356.71875 225.847656 359.699219 219.929688 362.820312 214.085938 C 365.945312 208.238281 369.210938 202.472656 372.621094 196.789062 C 376.027344 191.101562 379.574219 185.503906 383.253906 179.992188 C 386.9375 174.484375 390.753906 169.066406 394.699219 163.742188 C 398.648438 158.417969 402.726562 153.195312 406.929688 148.070312 C 411.136719 142.945312 415.464844 137.929688 419.914062 133.019531 C 424.367188 128.109375 428.933594 123.308594 433.621094 118.621094 C 438.308594 113.933594 443.109375 109.367188 448.019531 104.914062 C 452.929688 100.464844 457.945312 96.136719 463.070312 91.929688 C 468.195312 87.726562 473.417969 83.648438 478.742188 79.699219 C 484.066406 75.753906 489.484375 71.9375 494.992188 68.253906 C 500.503906 64.574219 506.101562 61.027344 511.789062 57.621094 C 517.472656 54.210938 523.238281 50.945312 529.085938 47.820312 C 534.929688 44.699219 540.847656 41.71875 546.839844 38.882812 C 552.832031 36.050781 558.890625 33.367188 565.011719 30.828125 C 571.136719 28.292969 577.320312 25.90625 583.558594 23.675781 C 589.800781 21.441406 596.09375 19.363281 602.433594 17.4375 C 608.777344 15.515625 615.164062 13.746094 621.59375 12.136719 C 628.023438 10.527344 634.488281 9.074219 640.988281 7.78125 C 647.488281 6.488281 654.019531 5.355469 660.574219 4.382812 C 667.128906 3.410156 673.707031 2.601562 680.304688 1.949219 C 686.898438 1.300781 693.507812 0.8125 700.128906 0.488281 C 706.746094 0.164062 713.371094 0 720 0 C 726.628906 0 733.253906 0.164062 739.871094 0.488281 C 746.492188 0.8125 753.101562 1.300781 759.695312 1.949219 C 766.292969 2.601562 772.871094 3.410156 779.425781 4.382812 C 785.980469 5.355469 792.511719 6.488281 799.011719 7.78125 C 805.511719 9.074219 811.976562 10.527344 818.40625 12.136719 C 824.835938 13.746094 831.222656 15.515625 837.566406 17.4375 C 843.90625 19.363281 850.199219 21.441406 856.441406 23.675781 C 862.679688 25.90625 868.863281 28.292969 874.988281 30.828125 C 881.109375 33.367188 887.167969 36.050781 893.160156 38.882812 C 899.152344 41.71875 905.070312 44.699219 910.914062 47.820312 C 916.761719 50.945312 922.527344 54.210938 928.210938 57.621094 C 933.898438 61.027344 939.496094 64.574219 945.003906 68.253906 C 950.515625 71.9375 955.933594 75.753906 961.257812 79.699219 C 966.582031 83.648438 971.804688 87.726562 976.929688 91.929688 C 982.054688 96.136719 987.070312 100.464844 991.980469 104.914062 C 996.890625 109.367188 1001.691406 113.933594 1006.378906 118.621094 C 1011.066406 123.308594 1015.632812 128.109375 1020.085938 133.019531 C 1024.535156 137.929688 1028.863281 142.945312 1033.070312 148.070312 C 1037.273438 153.195312 1041.351562 158.417969 1045.300781 163.742188 C 1049.246094 169.066406 1053.0625 174.484375 1056.746094 179.992188 C 1060.425781 185.503906 1063.972656 191.101562 1067.378906 196.789062 C 1070.789062 202.472656 1074.054688 208.238281 1077.179688 214.085938 C 1080.300781 219.929688 1083.28125 225.847656 1086.117188 231.839844 C 1088.949219 237.832031 1091.632812 243.890625 1094.171875 250.011719 C 1096.707031 256.136719 1099.09375 262.320312 1101.324219 268.558594 C 1103.558594 274.800781 1105.636719 281.09375 1107.5625 287.433594 C 1109.484375 293.777344 1111.253906 300.164062 1112.863281 306.59375 C 1114.472656 313.023438 1115.925781 319.488281 1117.21875 325.988281 C 1118.511719 332.488281 1119.644531 339.019531 1120.617188 345.574219 C 1121.589844 352.128906 1122.398438 358.707031 1123.050781 365.304688 C 1123.699219 371.898438 1124.1875 378.507812 1124.511719 385.128906 C 1124.835938 391.746094 1125 398.371094 1125 405 Z M 1125 405 " fill-opacity="1" fill-rule="nonzero"/><path fill="#ffffff" d="M 553.875 252.277344 L 553.875 473.480469 C 553.875 479.960938 559.179688 485.261719 565.65625 485.261719 L 874.488281 485.261719 C 880.96875 485.261719 886.269531 479.960938 886.269531 473.480469 L 886.269531 252.277344 Z M 620 445.207031 C 623.535156 447.710938 624.421875 452.570312 621.917969 456.105469 C 620.445312 458.3125 617.941406 459.492188 615.4375 459.492188 C 613.816406 459.492188 612.34375 459.050781 611.019531 458.019531 L 581.269531 437.398438 C 579.207031 435.925781 577.882812 433.570312 577.882812 430.921875 C 577.882812 428.417969 579.207031 425.914062 581.269531 424.441406 L 611.164062 403.675781 C 614.699219 401.171875 619.558594 402.054688 622.0625 405.589844 C 624.566406 409.125 623.683594 413.984375 620.148438 416.488281 L 599.679688 430.773438 Z M 643.269531 370.242188 C 643.269531 374.515625 639.738281 378.050781 635.464844 378.050781 C 631.195312 378.050781 627.660156 374.515625 627.660156 370.242188 L 627.660156 358.167969 L 585.835938 358.167969 C 582.742188 358.167969 579.945312 356.398438 578.765625 353.601562 C 577.441406 350.804688 577.882812 347.5625 579.796875 345.207031 L 629.574219 285.5625 C 631.636719 283.058594 635.171875 282.027344 638.261719 283.207031 C 641.355469 284.382812 643.417969 287.328125 643.417969 290.570312 L 643.417969 342.410156 L 655.496094 342.410156 C 659.765625 342.410156 663.300781 345.945312 663.300781 350.214844 C 663.300781 354.484375 659.765625 358.019531 655.496094 358.019531 L 643.417969 358.019531 Z M 682.296875 413.542969 L 662.417969 455.074219 C 661.089844 457.871094 658.292969 459.492188 655.347656 459.492188 C 654.167969 459.492188 652.992188 459.195312 651.960938 458.753906 C 647.984375 456.839844 646.363281 452.128906 648.277344 448.296875 L 668.160156 406.914062 C 670.074219 402.9375 674.789062 401.316406 678.617188 403.234375 C 682.59375 405 684.210938 409.710938 682.296875 413.542969 Z M 749.308594 437.398438 L 719.558594 458.019531 C 718.234375 458.902344 716.613281 459.492188 715.140625 459.492188 C 712.636719 459.492188 710.132812 458.3125 708.660156 456.105469 C 706.15625 452.570312 707.039062 447.710938 710.574219 445.207031 L 731.046875 430.921875 L 710.574219 416.632812 C 707.039062 414.132812 706.15625 409.269531 708.660156 405.738281 C 711.164062 402.203125 716.023438 401.316406 719.558594 403.820312 L 749.453125 424.585938 C 751.515625 426.058594 752.839844 428.417969 752.839844 431.066406 C 752.695312 433.421875 751.515625 435.925781 749.308594 437.398438 Z M 752.695312 370.242188 C 752.695312 374.515625 749.160156 378.050781 744.890625 378.050781 L 695.109375 378.050781 C 690.839844 378.050781 687.304688 374.515625 687.304688 370.242188 L 687.304688 290.714844 C 687.304688 286.445312 690.839844 282.910156 695.109375 282.910156 L 744.890625 282.910156 C 749.160156 282.910156 752.695312 286.445312 752.695312 290.714844 Z M 854.3125 459.492188 L 804.535156 459.492188 C 800.265625 459.492188 796.730469 455.957031 796.730469 451.683594 C 796.730469 447.414062 800.265625 443.878906 804.535156 443.878906 L 854.3125 443.878906 C 858.582031 443.878906 862.117188 447.414062 862.117188 451.683594 C 862.117188 455.957031 858.582031 459.492188 854.3125 459.492188 Z M 854.3125 418.105469 L 804.535156 418.105469 C 800.265625 418.105469 796.730469 414.574219 796.730469 410.300781 C 796.730469 406.03125 800.265625 402.496094 804.535156 402.496094 L 854.3125 402.496094 C 858.582031 402.496094 862.117188 406.03125 862.117188 410.300781 C 862.117188 414.574219 858.582031 418.105469 854.3125 418.105469 Z M 854.3125 358.167969 L 842.238281 358.167969 L 842.238281 370.242188 C 842.238281 374.515625 838.703125 378.050781 834.429688 378.050781 C 830.160156 378.050781 826.625 374.515625 826.625 370.242188 L 826.625 358.167969 L 784.800781 358.167969 C 781.707031 358.167969 778.910156 356.398438 777.730469 353.601562 C 776.40625 350.804688 776.847656 347.5625 778.761719 345.207031 L 828.539062 285.5625 C 830.601562 283.058594 834.136719 282.027344 837.230469 283.207031 C 840.320312 284.382812 842.382812 287.328125 842.382812 290.570312 L 842.382812 342.410156 L 854.460938 342.410156 C 858.730469 342.410156 862.265625 345.945312 862.265625 350.214844 C 862.117188 354.632812 858.582031 358.167969 854.3125 358.167969 Z M 854.3125 358.167969 " fill-opacity="1" fill-rule="nonzero"/><path fill="#ffffff" d="M 874.34375 169.363281 L 565.65625 169.363281 C 559.179688 169.363281 553.875 174.664062 553.875 181.144531 L 553.875 236.519531 L 886.269531 236.519531 L 886.269531 181.144531 C 886.125 174.664062 880.820312 169.363281 874.34375 169.363281 Z M 593.492188 204.414062 C 593.34375 204.855469 593.199219 205.445312 593.050781 205.886719 C 592.902344 206.328125 592.609375 206.769531 592.316406 207.210938 C 592.019531 207.65625 591.726562 208.097656 591.285156 208.390625 C 590.988281 208.683594 590.546875 209.128906 590.105469 209.421875 C 589.664062 209.714844 589.222656 210.011719 588.78125 210.15625 C 588.339844 210.304688 587.75 210.453125 587.308594 210.601562 C 586.867188 210.746094 586.277344 210.746094 585.835938 210.746094 C 585.394531 210.746094 584.804688 210.746094 584.363281 210.601562 C 583.921875 210.453125 583.332031 210.304688 582.890625 210.15625 C 582.449219 210.011719 582.003906 209.714844 581.5625 209.421875 C 581.121094 209.128906 580.679688 208.832031 580.386719 208.390625 C 580.089844 208.097656 579.648438 207.65625 579.355469 207.210938 C 579.058594 206.769531 578.765625 206.328125 578.617188 205.886719 C 578.472656 205.445312 578.324219 204.855469 578.175781 204.414062 C 578.027344 203.972656 578.027344 203.382812 578.027344 202.941406 C 578.027344 202.351562 578.027344 201.910156 578.175781 201.46875 C 578.324219 201.027344 578.472656 200.4375 578.617188 199.996094 C 578.765625 199.554688 579.058594 199.113281 579.355469 198.671875 C 579.648438 198.230469 579.945312 197.789062 580.386719 197.492188 C 580.679688 197.199219 581.121094 196.757812 581.5625 196.460938 C 582.003906 196.167969 582.449219 195.871094 582.890625 195.726562 C 583.332031 195.578125 583.921875 195.429688 584.363281 195.285156 C 585.394531 195.136719 586.421875 195.136719 587.453125 195.285156 C 587.894531 195.429688 588.484375 195.578125 588.925781 195.726562 C 589.367188 195.871094 589.8125 196.167969 590.253906 196.460938 C 590.695312 196.757812 591.136719 197.050781 591.429688 197.492188 C 591.726562 197.789062 592.167969 198.230469 592.460938 198.671875 C 592.757812 199.113281 593.050781 199.554688 593.199219 199.996094 C 593.34375 200.4375 593.492188 201.027344 593.640625 201.46875 C 593.789062 201.910156 593.789062 202.5 593.789062 202.941406 C 593.640625 203.53125 593.492188 203.972656 593.492188 204.414062 Z M 633.257812 204.414062 C 633.109375 204.855469 632.960938 205.445312 632.816406 205.886719 C 632.667969 206.328125 632.371094 206.769531 632.078125 207.210938 C 631.785156 207.65625 631.488281 208.097656 631.046875 208.390625 C 630.753906 208.683594 630.3125 209.128906 629.867188 209.421875 C 629.425781 209.714844 628.984375 210.011719 628.542969 210.15625 C 628.101562 210.304688 627.511719 210.453125 627.070312 210.601562 C 626.628906 210.746094 626.039062 210.746094 625.597656 210.746094 C 625.15625 210.746094 624.566406 210.746094 624.125 210.601562 C 623.683594 210.453125 623.09375 210.304688 622.652344 210.15625 C 622.210938 210.011719 621.769531 209.714844 621.328125 209.421875 C 620.886719 209.128906 620.445312 208.832031 620.148438 208.390625 C 619.855469 207.949219 619.414062 207.65625 619.117188 207.210938 C 618.824219 206.769531 618.527344 206.328125 618.382812 205.886719 C 618.234375 205.445312 618.085938 204.855469 617.941406 204.414062 C 617.792969 203.972656 617.792969 203.382812 617.792969 202.941406 C 617.792969 202.351562 617.792969 201.910156 617.941406 201.46875 C 618.085938 201.027344 618.234375 200.4375 618.382812 199.996094 C 618.527344 199.554688 618.824219 199.113281 619.117188 198.671875 C 619.414062 198.230469 619.707031 197.789062 620.148438 197.492188 C 620.589844 197.199219 620.886719 196.757812 621.328125 196.460938 C 621.769531 196.167969 622.210938 195.871094 622.652344 195.726562 C 623.09375 195.578125 623.683594 195.429688 624.125 195.285156 C 625.15625 195.136719 626.1875 195.136719 627.21875 195.285156 C 627.660156 195.429688 628.25 195.578125 628.691406 195.726562 C 629.132812 195.871094 629.574219 196.167969 630.015625 196.460938 C 630.457031 196.757812 630.898438 197.050781 631.195312 197.492188 C 631.488281 197.789062 631.929688 198.230469 632.226562 198.671875 C 632.519531 199.113281 632.816406 199.554688 632.960938 199.996094 C 633.109375 200.4375 633.257812 201.027344 633.402344 201.46875 C 633.550781 201.910156 633.550781 202.5 633.550781 202.941406 C 633.402344 203.53125 633.402344 203.972656 633.257812 204.414062 Z M 673.019531 204.414062 C 672.871094 204.855469 672.726562 205.445312 672.578125 205.886719 C 672.429688 206.328125 672.136719 206.769531 671.84375 207.210938 C 671.546875 207.65625 671.253906 208.097656 670.8125 208.390625 C 670.515625 208.683594 670.074219 209.128906 669.632812 209.421875 C 669.191406 209.714844 668.75 210.011719 668.308594 210.15625 C 667.867188 210.304688 667.277344 210.453125 666.835938 210.601562 C 666.394531 210.746094 665.804688 210.746094 665.363281 210.746094 C 664.921875 210.746094 664.332031 210.746094 663.890625 210.601562 C 663.449219 210.453125 662.859375 210.304688 662.417969 210.15625 C 661.972656 210.011719 661.53125 209.714844 661.089844 209.421875 C 660.648438 209.128906 660.207031 208.832031 659.914062 208.390625 C 659.617188 208.097656 659.175781 207.65625 658.882812 207.210938 C 658.585938 206.769531 658.292969 206.328125 658.144531 205.886719 C 658 205.445312 657.851562 204.855469 657.703125 204.414062 C 657.554688 203.972656 657.554688 203.382812 657.554688 202.941406 C 657.554688 202.351562 657.554688 201.910156 657.703125 201.46875 C 657.851562 201.027344 658 200.4375 658.144531 199.996094 C 658.292969 199.554688 658.585938 199.113281 658.882812 198.671875 C 659.175781 198.230469 659.472656 197.789062 659.914062 197.492188 C 660.207031 197.199219 660.648438 196.757812 661.089844 196.460938 C 661.53125 196.167969 661.972656 195.871094 662.417969 195.726562 C 662.859375 195.578125 663.449219 195.429688 663.890625 195.285156 C 664.921875 195.136719 665.949219 195.136719 666.980469 195.285156 C 667.421875 195.429688 668.011719 195.578125 668.453125 195.726562 C 668.894531 195.871094 669.339844 196.167969 669.78125 196.460938 C 670.222656 196.757812 670.664062 197.050781 670.957031 197.492188 C 671.253906 197.789062 671.695312 198.230469 671.988281 198.671875 C 672.285156 199.113281 672.578125 199.554688 672.726562 199.996094 C 672.871094 200.4375 673.019531 201.027344 673.167969 201.46875 C 673.316406 201.910156 673.316406 202.5 673.316406 202.941406 C 673.167969 203.53125 673.167969 203.972656 673.019531 204.414062 Z M 854.3125 210.746094 L 715.140625 210.746094 C 710.867188 210.746094 707.335938 207.210938 707.335938 202.941406 C 707.335938 198.671875 710.867188 195.136719 715.140625 195.136719 L 854.3125 195.136719 C 858.582031 195.136719 862.117188 198.671875 862.117188 202.941406 C 862.117188 207.359375 858.582031 210.746094 854.3125 210.746094 Z M 854.3125 210.746094 " fill-opacity="1" fill-rule="nonzero"/><path fill="#ffffff" d="M 955.34375 583.789062 C 951.660156 615.746094 925.59375 640.636719 894.078125 640.636719 L 545.921875 640.636719 C 514.40625 640.636719 488.339844 615.746094 484.65625 583.789062 L 641.0625 583.789062 L 658.585938 611.183594 C 660.058594 613.390625 662.5625 614.863281 665.214844 614.863281 L 774.636719 614.863281 C 777.289062 614.863281 779.792969 613.539062 781.265625 611.183594 L 798.789062 583.789062 Z M 955.34375 583.789062 " fill-opacity="1" fill-rule="nonzero"/><path fill="#ffffff" d="M 901.882812 324.738281 L 901.882812 473.335938 C 901.882812 488.503906 889.511719 500.875 874.34375 500.875 L 565.65625 500.875 C 550.488281 500.875 538.117188 488.503906 538.117188 473.335938 L 538.117188 324.738281 L 514.113281 324.738281 L 514.113281 568.03125 L 645.480469 568.03125 C 648.132812 568.03125 650.632812 569.355469 652.105469 571.710938 L 669.632812 599.105469 L 770.367188 599.105469 L 787.894531 571.710938 C 789.367188 569.503906 791.867188 568.03125 794.519531 568.03125 L 925.886719 568.03125 L 925.886719 324.738281 Z M 894.078125 542.40625 L 545.921875 542.40625 C 541.652344 542.40625 538.117188 538.871094 538.117188 534.601562 C 538.117188 530.328125 541.652344 526.792969 545.921875 526.792969 L 893.929688 526.792969 C 898.199219 526.792969 901.734375 530.328125 901.734375 534.601562 C 901.882812 538.871094 898.347656 542.40625 894.078125 542.40625 Z M 894.078125 542.40625 " fill-opacity="1" fill-rule="nonzero"/><path fill="#ffffff" d="M 627.660156 312.367188 L 627.660156 342.410156 L 602.476562 342.410156 Z M 627.660156 312.367188 " fill-opacity="1" fill-rule="nonzero"/><path fill="#ffffff" d="M 826.476562 312.367188 L 826.476562 342.410156 L 801.441406 342.410156 Z M 826.476562 312.367188 " fill-opacity="1" fill-rule="nonzero"/><path fill="#ffffff" d="M 703.0625 298.523438 L 737.082031 298.523438 L 737.082031 362.289062 L 703.0625 362.289062 Z M 703.0625 298.523438 " fill-opacity="1" fill-rule="nonzero"/></svg>